<svg width="121" height="30" viewBox="0 0 121 30" fill="none" xmlns="http://www.w3.org/2000/svg">
<path d="M100.681 20.1378H84.9914C84.9729 21.4004 85.4241 22.6251 86.2578 23.5758C87.0916 24.5266 88.249 25.136 89.5069 25.2867C90.2783 25.3995 91.0645 25.3545 91.8178 25.1545C92.5711 24.9545 93.2757 24.6037 93.8885 24.1234C94.2977 23.8605 94.6545 23.5242 94.9408 23.1318C94.9679 23.0568 95.0103 22.9882 95.0655 22.9306C95.1207 22.8729 95.1873 22.8273 95.2611 22.7968C95.335 22.7663 95.4144 22.7515 95.4944 22.7533C95.5743 22.7552 95.653 22.7737 95.7253 22.8076L99.552 23.8946C99.0912 24.8648 98.4407 25.7335 97.6387 26.4499C96.5268 27.501 95.1884 28.2846 93.7258 28.7408C92.2633 29.1969 90.7155 29.3135 89.2008 29.0816C88.0695 29.0168 86.954 28.7855 85.8907 28.3951C84.2679 27.7886 82.8365 26.7622 81.7436 25.4216C80.6507 24.0809 79.9358 22.4744 79.6723 20.7671C79.3112 19.089 79.3553 17.3493 79.8011 15.6916C80.2469 14.0338 81.0815 12.5053 82.2362 11.2321C83.2183 10.1831 84.4204 9.36266 85.7568 8.82926C87.9425 7.81753 90.4183 7.61471 92.7405 8.25716C94.6876 8.67408 96.4618 9.67035 97.8284 11.1142C99.195 12.558 100.09 14.3813 100.394 16.3428C100.579 17.5995 100.675 18.8677 100.681 20.1378ZM84.8192 16.7814H95.3235C95.2427 15.4477 94.6542 14.1951 93.6781 13.2792C92.702 12.3633 91.412 11.8533 90.0714 11.8533C88.7308 11.8533 87.4407 12.3633 86.4647 13.2792C85.4886 14.1951 84.9 15.4477 84.8192 16.7814Z" fill="url(#paint0_linear_1228_1596)"/>
<path d="M46.8574 0.762817H64.4411C65.0342 0.762817 65.2447 0.896303 65.2064 1.52561C65.2064 2.8033 65.2064 4.10006 65.2064 5.45403H64.4411H52.8462C52.0426 5.45403 52.0426 5.45404 52.0426 6.21684C52.0426 8.12384 52.0426 10.0308 52.0426 11.9378C52.0426 12.4527 52.1957 12.6053 52.7314 12.6053H62.1833H62.9295V16.9914H52.1V28.5859H46.8574V0.762817Z" fill="url(#paint1_linear_1228_1596)"/>
<path d="M18.4064 5.45401H6.00791C5.22344 5.45401 5.22344 5.45401 5.22344 6.21681V11.9378C5.22344 12.7387 5.22344 12.7388 5.98877 12.7388H16.0721V17.163H5.22344V28.7575H0V0.78186H0.669672H17.6219C18.1959 0.78186 18.3873 0.915352 18.3681 1.50652C18.3681 2.59351 18.3681 3.69957 18.3681 4.78656C18.4064 4.95819 18.4064 5.16796 18.4064 5.45401Z" fill="url(#paint2_linear_1228_1596)"/>
<path d="M120.943 8.21912C120.789 8.4861 120.713 8.6768 120.598 8.84843C118.685 11.6708 116.771 14.4741 114.743 17.2774C114.508 17.5983 114.297 17.9361 114.112 18.2881C114.039 18.4719 114.039 18.6763 114.112 18.8602C115.719 21.1867 117.345 23.4942 118.953 25.8017C119.603 26.7361 120.215 27.7087 120.866 28.6812H120.33H116.197C116.032 28.6979 115.865 28.6673 115.715 28.593C115.566 28.5188 115.442 28.4039 115.356 28.2617C114.074 26.3547 112.753 24.4477 111.529 22.5407C111.37 22.297 111.229 22.0421 111.108 21.7779L108.563 25.5919C107.932 26.5072 107.32 27.4989 106.65 28.3761C106.57 28.5252 106.447 28.6468 106.297 28.7251C106.147 28.8033 105.976 28.8346 105.808 28.8147H100.986C101.56 27.9566 102.039 27.1747 102.574 26.431C104.296 23.99 106.025 21.5554 107.76 19.1272C107.863 19.0118 107.92 18.8624 107.92 18.7076C107.92 18.5528 107.863 18.4034 107.76 18.2881C106.65 16.6862 105.559 15.0652 104.469 13.4634C103.378 11.8615 102.383 10.4122 101.35 8.86749C101.227 8.70552 101.118 8.53325 101.025 8.35261H101.599H105.865C106.014 8.3244 106.169 8.34898 106.301 8.42211C106.434 8.49523 106.537 8.61231 106.592 8.75307C106.918 9.34424 107.339 9.8782 107.721 10.4503L110.974 15.4085C111.758 14.188 112.524 12.9675 113.327 11.7661C114.131 10.5647 114.724 9.6303 115.451 8.58145C115.491 8.52245 115.541 8.47183 115.6 8.43254C115.659 8.39325 115.726 8.36608 115.796 8.35261L120.943 8.21912Z" fill="url(#paint3_linear_1228_1596)"/>
<path d="M37.7309 1.58276C37.7309 1.84974 37.7309 2.07859 37.7309 2.30743C37.7309 4.1 37.7309 5.89258 37.7309 7.68516C37.7309 8.1047 37.8648 8.23819 38.2858 8.21912C39.472 8.21912 40.6774 8.21912 41.9211 8.21912V12.2047H37.8266C37.8266 12.4145 37.8266 12.5289 37.8266 12.6624C37.8266 15.8471 37.8266 19.0318 37.8266 22.1974C37.8266 23.7421 38.5919 24.4477 40.1034 24.3333C40.5785 24.2707 41.0463 24.1622 41.5002 24.0091C41.8446 24.0091 42.189 23.7421 42.6291 23.5705L43.624 27.7277C42.2428 28.4125 40.7546 28.8575 39.2233 29.0436C38.3341 29.1583 37.4338 29.1583 36.5446 29.0436C35.9755 28.9773 35.425 28.7999 34.9246 28.5216C34.4242 28.2432 33.9838 27.8694 33.6284 27.4213C33.2731 26.9733 33.0098 26.4599 32.8535 25.9104C32.6973 25.3609 32.6512 24.7861 32.7179 24.2188V12.262H30.001V8.23819H32.5457V1.58276H37.7309Z" fill="url(#paint4_linear_1228_1596)"/>
<path d="M68.4788 0H73.53C73.53 0.28605 73.53 0.55303 73.53 0.82001V22.0068C73.5106 22.3625 73.5106 22.719 73.53 23.0747C73.5377 23.308 73.5954 23.537 73.6991 23.7464C73.8027 23.9557 73.9501 24.1406 74.1312 24.2886C74.3123 24.4366 74.5231 24.5444 74.7494 24.6048C74.9757 24.6651 75.2123 24.6766 75.4433 24.6384C76.1513 24.5431 76.8401 24.3714 77.6054 24.1998C77.7776 25.1915 77.9498 26.2403 78.122 27.2892C78.2942 28.338 78.256 28.2045 77.395 28.4715C75.56 29.143 73.5784 29.3141 71.6549 28.9673C70.7437 28.8046 69.9146 28.339 69.3031 27.6463C68.6915 26.9536 68.3335 26.0749 68.2874 25.1533C68.2072 24.6041 68.1751 24.049 68.1918 23.4942V0.858151C68.4405 0.572101 68.4596 0.24791 68.4788 0Z" fill="url(#paint5_linear_1228_1596)"/>
<path d="M26.6327 28.7003H21.6963V8.06653H26.6327V28.7003Z" fill="url(#paint6_linear_1228_1596)"/>
<path d="M21.6963 0.0189209H26.6136V5.09154H21.6963V0.0189209Z" fill="url(#paint7_linear_1228_1596)"/>
<defs>
<linearGradient id="paint0_linear_1228_1596" x1="79.6011" y1="8.5763" x2="127.018" y2="25.2195" gradientUnits="userSpaceOnUse">
<stop stop-color="#EF3511"/>
<stop offset="1" stop-color="#FF7253"/>
</linearGradient>
<linearGradient id="paint1_linear_1228_1596" x1="47.0046" y1="1.66034" x2="90.6505" y2="11.7936" gradientUnits="userSpaceOnUse">
<stop stop-color="#EF3511"/>
<stop offset="1" stop-color="#FF7253"/>
</linearGradient>
<linearGradient id="paint2_linear_1228_1596" x1="0.147645" y1="1.6843" x2="43.9312" y2="11.8233" gradientUnits="userSpaceOnUse">
<stop stop-color="#EF3511"/>
<stop offset="1" stop-color="#FF7253"/>
</linearGradient>
<linearGradient id="paint3_linear_1228_1596" x1="101.146" y1="8.88368" x2="145.954" y2="24.1602" gradientUnits="userSpaceOnUse">
<stop stop-color="#EF3511"/>
<stop offset="1" stop-color="#FF7253"/>
</linearGradient>
<linearGradient id="paint4_linear_1228_1596" x1="30.1103" y1="2.47137" x2="63.2493" y2="8.23952" gradientUnits="userSpaceOnUse">
<stop stop-color="#EF3511"/>
<stop offset="1" stop-color="#FF7253"/>
</linearGradient>
<linearGradient id="paint5_linear_1228_1596" x1="68.2678" y1="0.940071" x2="93.0094" y2="3.93308" gradientUnits="userSpaceOnUse">
<stop stop-color="#EF3511"/>
<stop offset="1" stop-color="#FF7253"/>
</linearGradient>
<linearGradient id="paint6_linear_1228_1596" x1="21.7359" y1="8.73213" x2="34.0208" y2="9.76657" gradientUnits="userSpaceOnUse">
<stop stop-color="#EF3511"/>
<stop offset="1" stop-color="#FF7253"/>
</linearGradient>
<linearGradient id="paint7_linear_1228_1596" x1="21.7357" y1="0.182554" x2="32.7748" y2="3.94892" gradientUnits="userSpaceOnUse">
<stop stop-color="#EF3511"/>
<stop offset="1" stop-color="#FF7253"/>
</linearGradient>
</defs>
</svg>
